<svg class="svg-icon" style="width: 1em; height: 1em;vertical-align: middle;fill: currentColor;overflow: hidden;" viewBox="0 0 1024 1024" version="1.1" xmlns="http://www.w3.org/2000/svg"><path d="M303.0016 443.221333l39.048533 51.473067C319.419733 528.213333 307.2 569.275733 307.2 614.4c0 119.296 84.957867 204.8 204.8 204.8s204.8-85.504 204.8-204.8c0-46.08-12.731733-87.927467-36.317867-121.821867l40.072534-51.438933c44.373333 16.759467 87.517867 10.615467 113.493333-15.1552 39.799467-39.458133 31.163733-116.770133-24.712533-172.168533-55.978667-55.5008-134.4512-64.170667-174.421334-24.507734-33.109333 32.836267-33.28 92.8768 2.389334 145.339734l-41.130667 50.7904A221.969067 221.969067 0 0 0 512 409.6c-27.8528 0-54.101333 4.608-77.994667 13.448533l-40.413866-50.722133c34.133333-52.0192 33.450667-110.6944 0.8192-143.018667-39.970133-39.662933-118.442667-30.993067-174.421334 24.507734-55.876267 55.3984-64.512 132.7104-24.712533 172.168533 24.814933 24.576 65.194667 31.402667 107.7248 17.237333z m-155.818667 31.232c-69.4272-68.846933-55.978667-189.098667 24.746667-269.1072 80.554667-79.872 201.3184-93.184 270.574933-24.507733 41.745067 41.403733 53.896533 102.2976 38.229334 162.065067a311.6032 311.6032 0 0 1 68.027733 0.580266c-15.906133-59.904-3.857067-121.070933 38.058667-162.645333 69.256533-68.676267 190.0544-55.364267 270.574933 24.507733 80.6912 80.008533 94.173867 200.260267 24.746667 269.1072-29.764267 29.525333-69.8368 44.305067-112.64 44.305067A293.546667 293.546667 0 0 1 785.066667 614.4c0 156.910933-115.438933 273.066667-273.066667 273.066667s-273.066667-116.155733-273.066667-273.066667c0-33.621333 5.3248-65.8432 15.598934-95.709867-40.8576-1.194667-78.848-15.9744-107.349334-44.2368z"  /></svg>